<svg width="12" height="12" viewBox="0 0 12 12" fill="none" xmlns="http://www.w3.org/2000/svg">
<path fill-rule="evenodd" clip-rule="evenodd" d="M0.823432 5.17469C0.63493 4.98811 0.329355 4.98811 0.141376 5.17469C-0.0471254 5.36041 -0.0471254 5.6632 0.141376 5.84978L5.65166 11.3062C5.84016 11.4926 6.14573 11.4926 6.33423 11.3062L11.8445 5.84978C12.033 5.6632 12.033 5.36111 11.8445 5.17469C11.656 4.98811 11.3511 4.98811 11.1626 5.174L5.9926 10.1507L0.823432 5.17469Z" fill="#231F20"/>
<path fill-rule="evenodd" clip-rule="evenodd" d="M0.823432 0.174694C0.63493 -0.0118911 0.329355 -0.0118911 0.141376 0.174694C-0.0471254 0.360409 -0.0471254 0.663196 0.141376 0.849781L5.65166 6.30623C5.84016 6.49264 6.14573 6.49264 6.33423 6.30623L11.8445 0.849781C12.033 0.663196 12.033 0.361105 11.8445 0.174694C11.656 -0.0118911 11.3511 -0.0118911 11.1626 0.173997L5.9926 5.15065L0.823432 0.174694Z" fill="#9E9E9E"/>
</svg>
