<svg width="18" height="22" viewBox="0 0 18 22" fill="none" xmlns="http://www.w3.org/2000/svg">
<mask id="mask0" style="mask-type:alpha" maskUnits="userSpaceOnUse" x="0" y="0" width="18" height="22">
<path fill-rule="evenodd" clip-rule="evenodd" d="M0 0H17.9911V21.6528H0V0Z" fill="white"/>
</mask>
<g mask="url(#mask0)">
<path fill-rule="evenodd" clip-rule="evenodd" d="M16.7632 17.5781C16.7632 17.7482 16.6247 17.8868 16.4542 17.8868H4.4943C4.3238 17.8868 4.18534 17.7482 4.18534 17.5781V1.54425C4.18534 1.37393 4.3238 1.23524 4.4943 1.23524H16.4542C16.6247 1.23524 16.7632 1.37415 16.7632 1.54425V17.5781ZM13.8135 20.1085C13.8135 20.2786 13.6747 20.4175 13.5046 20.4175H1.54425C1.37415 20.4175 1.23529 20.2786 1.23529 20.1085V4.0746C1.23529 3.90449 1.37415 3.76586 1.54425 3.76586H2.95004V17.5781C2.95004 18.4291 3.64293 19.1221 4.4943 19.1221H13.8135V20.1085ZM16.4542 0H4.4943C3.64293 0 2.95004 0.693056 2.95004 1.54425V2.53034H1.54425C0.692888 2.53034 0 3.22345 0 4.0746V20.1085C0 20.9597 0.692888 21.6528 1.54425 21.6528H13.5046C14.356 21.6528 15.0488 20.9597 15.0488 20.1085V19.1221H16.4542C17.3058 19.1221 17.9985 18.4291 17.9985 17.5781V1.54425C17.9985 0.693056 17.3058 0 16.4542 0Z" fill="#9E9E9E"/>
</g>
<path fill-rule="evenodd" clip-rule="evenodd" d="M15.0039 3.83643H5.94467C5.60362 3.83643 5.32697 4.1133 5.32697 4.45396C5.32697 4.79546 5.60362 5.07166 5.94467 5.07166H15.0039C15.345 5.07166 15.6216 4.79546 15.6216 4.45396C15.6216 4.1133 15.345 3.83643 15.0039 3.83643Z" fill="#9E9E9E"/>
<path fill-rule="evenodd" clip-rule="evenodd" d="M15.0039 6.77637H5.94467C5.60362 6.77637 5.32697 7.05308 5.32697 7.39412C5.32697 7.73545 5.60362 8.01188 5.94467 8.01188H15.0039C15.345 8.01188 15.6216 7.73545 15.6216 7.39412C15.6216 7.0533 15.345 6.77637 15.0039 6.77637Z" fill="#9E9E9E"/>
<path fill-rule="evenodd" clip-rule="evenodd" d="M15.0039 9.71655H5.94467C5.60362 9.71655 5.32697 9.99343 5.32697 10.3343C5.32697 10.6756 5.60362 10.9518 5.94467 10.9518H15.0039C15.345 10.9518 15.6216 10.6756 15.6216 10.3343C15.6216 9.99343 15.345 9.71655 15.0039 9.71655Z" fill="#9E9E9E"/>
<path fill-rule="evenodd" clip-rule="evenodd" d="M15.0039 12.6565H5.94467C5.60362 12.6565 5.32697 12.9334 5.32697 13.2743C5.32697 13.6157 5.60362 13.892 5.94467 13.892H15.0039C15.345 13.892 15.6216 13.6157 15.6216 13.2743C15.6216 12.9334 15.345 12.6565 15.0039 12.6565Z" fill="#9E9E9E"/>
</svg>
