<svg width="20" height="21" viewBox="0 0 20 21" fill="none" xmlns="http://www.w3.org/2000/svg">
<path fill-rule="evenodd" clip-rule="evenodd" d="M4.99858 11.4673C4.20983 11.4673 3.57042 10.8279 3.57042 10.0391C3.57042 9.25034 4.20983 8.61093 4.99858 8.61093C5.78736 8.61093 6.42674 9.25034 6.42674 10.0391C6.42674 10.8279 5.78736 11.4673 4.99858 11.4673ZM19.2803 9.32498H7.75351C7.36628 7.80352 5.81891 6.88398 4.29741 7.27126C3.28837 7.52808 2.50046 8.31599 2.24364 9.32498H0.714059C0.319665 9.32498 0 9.64469 0 10.0391C0 10.4335 0.319665 10.7532 0.714059 10.7532H2.24364C2.63088 12.2747 4.17828 13.1942 5.69975 12.807C6.70883 12.5501 7.49674 11.7622 7.75351 10.7532H19.2803C19.6747 10.7532 19.9944 10.4335 19.9944 10.0391C19.9944 9.64469 19.6747 9.32498 19.2803 9.32498Z" fill="white"/>
<mask id="mask0" mask-type="alpha" maskUnits="userSpaceOnUse" x="0" y="0" width="20" height="6">
<path fill-rule="evenodd" clip-rule="evenodd" d="M0 0.0418701H19.9944V5.75457H0V0.0418701Z" fill="white"/>
</mask>
<g mask="url(#mask0)">
<path fill-rule="evenodd" clip-rule="evenodd" d="M14.2817 4.32629C13.4929 4.32629 12.8535 3.68688 12.8535 2.89814C12.8535 2.10935 13.4929 1.46993 14.2817 1.46993C15.0705 1.46993 15.7099 2.10935 15.7099 2.89814C15.7099 3.68688 15.0705 4.32629 14.2817 4.32629ZM19.2803 2.18404H17.0367C16.6494 0.662529 15.102 -0.257011 13.5805 0.13027C12.5715 0.38709 11.7836 1.175 11.5267 2.18404H0.714059C0.319665 2.18404 0 2.50374 0 2.89814C0 3.29249 0.319665 3.61219 0.714059 3.61219H11.5267C11.914 5.1337 13.4614 6.0532 14.9829 5.66596C15.9919 5.40914 16.7798 4.62123 17.0367 3.61219H19.2803C19.6747 3.61219 19.9944 3.29249 19.9944 2.89814C19.9944 2.50374 19.6747 2.18404 19.2803 2.18404Z" fill="white"/>
</g>
<mask id="mask1" mask-type="alpha" maskUnits="userSpaceOnUse" x="0" y="14" width="20" height="7">
<path fill-rule="evenodd" clip-rule="evenodd" d="M0 14.3236H19.9944V20.0363H0V14.3236Z" fill="white"/>
</mask>
<g mask="url(#mask1)">
<path fill-rule="evenodd" clip-rule="evenodd" d="M12.8536 18.6081C12.0648 18.6081 11.4254 17.9687 11.4254 17.18C11.4254 16.3912 12.0648 15.7518 12.8536 15.7518C13.6423 15.7518 14.2818 16.3912 14.2818 17.18C14.2818 17.9687 13.6423 18.6081 12.8536 18.6081ZM19.2803 16.4659H15.6085C15.2213 14.9444 13.6738 14.0249 12.1524 14.4121C11.1433 14.669 10.3554 15.4569 10.0986 16.4659H0.7141C0.319707 16.4659 0 16.7856 0 17.18C0 17.5744 0.319707 17.8941 0.7141 17.8941H10.0986C10.4859 19.4156 12.0333 20.335 13.5548 19.9478C14.5638 19.691 15.3517 18.9031 15.6085 17.8941H19.2803C19.6747 17.8941 19.9944 17.5744 19.9944 17.18C19.9944 16.7856 19.6747 16.4659 19.2803 16.4659Z" fill="white"/>
</g>
</svg>
