<svg width="20" height="20" viewBox="0 0 20 20" fill="none" xmlns="http://www.w3.org/2000/svg">
<path opacity="0.9" fill-rule="evenodd" clip-rule="evenodd" d="M16.4844 14.1406C15.8382 14.1406 15.3125 13.615 15.3125 12.9688C15.3125 12.3225 15.8382 11.7969 16.4844 11.7969C17.1306 11.7969 17.6562 12.3225 17.6562 12.9688C17.6562 13.615 17.1306 14.1406 16.4844 14.1406ZM18.8281 12.9688C18.8281 11.6763 17.7768 10.625 16.4844 10.625C15.192 10.625 14.1406 11.6763 14.1406 12.9688C14.1406 14.2612 15.192 15.3125 16.4844 15.3125C17.7768 15.3125 18.8281 14.2612 18.8281 12.9688Z" fill="#9E9E9E"/>
<path fill-rule="evenodd" clip-rule="evenodd" d="M14.1406 18.8281C14.1406 17.5357 15.192 16.4844 16.4844 16.4844C17.7768 16.4844 18.8281 17.5357 18.8281 18.8281H14.1406ZM1.17188 18.8281C1.17188 17.5357 2.2232 16.4844 3.51562 16.4844C4.80805 16.4844 5.85938 17.5357 5.85938 18.8281H1.17188ZM10 5.9375C11.3139 5.9375 12.3828 6.98883 12.3828 8.28125H7.65625C7.65625 6.98883 8.70758 5.9375 10 5.9375ZM16.4844 15.3125C15.6193 15.3125 14.8265 15.6267 14.2134 16.1467L10.5859 13.2715V9.45312H13.5547V8.28125C13.5547 6.34566 11.9511 4.76562 10 4.76562C8.06152 4.76562 6.48438 6.34277 6.48438 8.28125V9.45312H9.41406V13.2715L5.7866 16.1467C5.17348 15.6267 4.38066 15.3125 3.51562 15.3125C1.57715 15.3125 0 16.8896 0 18.8281V20H7.03125V18.8281C7.03125 18.1767 6.85305 17.5662 6.54297 17.0425L10 14.3024L13.457 17.0425C13.147 17.5662 12.9688 18.1767 12.9688 18.8281V20H20V18.8281C20 16.8896 18.4229 15.3125 16.4844 15.3125Z" fill="#9E9E9E"/>
<path opacity="0.9" fill-rule="evenodd" clip-rule="evenodd" d="M3.51562 14.1406C2.86941 14.1406 2.34375 13.615 2.34375 12.9688C2.34375 12.3225 2.86941 11.7969 3.51562 11.7969C4.16184 11.7969 4.6875 12.3225 4.6875 12.9688C4.6875 13.615 4.16184 14.1406 3.51562 14.1406ZM5.85938 12.9688C5.85938 11.6763 4.80805 10.625 3.51562 10.625C2.2232 10.625 1.17188 11.6763 1.17188 12.9688C1.17188 14.2612 2.2232 15.3125 3.51562 15.3125C4.80805 15.3125 5.85938 14.2612 5.85938 12.9688Z" fill="#9E9E9E"/>
<path opacity="0.9" fill-rule="evenodd" clip-rule="evenodd" d="M10 3.59375C9.36477 3.59375 8.82812 3.03926 8.82812 2.38281C8.82812 1.72637 9.36477 1.17188 10 1.17188C10.6452 1.17188 11.2109 1.73766 11.2109 2.38281C11.2109 3.02797 10.6452 3.59375 10 3.59375ZM12.3828 2.38281C12.3828 1.09117 11.2916 0 10 0C8.69445 0 7.65625 1.09816 7.65625 2.38281C7.65625 3.66777 8.69477 4.76562 10 4.76562C11.2916 4.76562 12.3828 3.67445 12.3828 2.38281Z" fill="#9E9E9E"/>
</svg>
