<svg width="14" height="14" viewBox="0 0 14 14" fill="none" xmlns="http://www.w3.org/2000/svg">
<path d="M12.3518 7.952H8.22381V12.08C8.22381 12.592 8.08781 12.952 7.81581 13.16C7.55981 13.352 7.28781 13.448 6.99981 13.448C6.71181 13.448 6.43181 13.352 6.15981 13.16C5.90381 12.952 5.77581 12.592 5.77581 12.08V7.952H1.64781C1.13581 7.952 0.775813 7.824 0.567813 7.568C0.375813 7.296 0.279813 7.016 0.279813 6.728C0.279813 6.44 0.375813 6.168 0.567813 5.912C0.775813 5.64 1.13581 5.504 1.64781 5.504H5.77581V1.376C5.77581 0.863999 5.90381 0.511999 6.15981 0.319999C6.43181 0.112 6.71181 0.0079999 6.99981 0.0079999C7.28781 0.0079999 7.55981 0.112 7.81581 0.319999C8.08781 0.511999 8.22381 0.863999 8.22381 1.376V5.504H12.3518C12.8638 5.504 13.2158 5.64 13.4078 5.912C13.6158 6.168 13.7198 6.44 13.7198 6.728C13.7198 7.016 13.6158 7.296 13.4078 7.568C13.2158 7.824 12.8638 7.952 12.3518 7.952Z" fill="white"/>
</svg>
