<svg width="20" height="20" viewBox="0 0 20 20" fill="none" xmlns="http://www.w3.org/2000/svg">
<mask id="mask0" mask-type="alpha" maskUnits="userSpaceOnUse" x="0" y="0" width="20" height="20">
<path fill-rule="evenodd" clip-rule="evenodd" d="M0 0H19.9081V19.9085H0V0Z" fill="white"/>
</mask>
<g mask="url(#mask0)">
<path fill-rule="evenodd" clip-rule="evenodd" d="M9.96969 13.2958C8.13877 13.2958 6.64969 11.8064 6.64969 9.97564C6.64969 8.14462 8.13877 6.65518 9.96969 6.65518C11.8009 6.65518 13.29 8.14462 13.29 9.97564C13.29 11.8064 11.8009 13.2958 9.96969 13.2958ZM19.8456 8.84916C19.8141 8.56925 19.4879 8.35879 19.2058 8.35879C18.2936 8.35879 17.4841 7.82342 17.1445 6.99481C16.798 6.14629 17.0215 5.15703 17.7012 4.53351C17.9153 4.33786 17.9414 4.01018 17.7619 3.78268C17.295 3.18981 16.7644 2.65416 16.185 2.19008C15.9582 2.00823 15.6251 2.03351 15.4283 2.25129C14.8352 2.90842 13.7692 3.15259 12.9456 2.80897C12.0889 2.44842 11.5481 1.57999 11.6013 0.647863C11.6187 0.3549 11.4045 0.10027 11.1127 0.0662885C10.369 -0.0198226 9.61886 -0.0223226 8.87302 0.0604552C8.58478 0.0923071 8.37062 0.340826 8.38043 0.630177C8.41256 1.55323 7.86571 2.40638 7.01719 2.75397C6.2034 3.08638 5.14506 2.84407 4.55302 2.19268C4.35738 1.97814 4.02997 1.95175 3.80182 2.12971C3.20534 2.59777 2.66284 3.13379 2.19154 3.72184C2.00784 3.95046 2.03497 4.28175 2.2509 4.47814C2.94386 5.10573 3.16738 6.1036 2.80747 6.96194C2.46386 7.78036 1.61432 8.3074 0.641729 8.3074C0.325988 8.29731 0.101358 8.50925 0.0666361 8.79638C-0.0209565 9.54397 -0.021975 10.3061 0.0622843 11.0599C0.0937657 11.341 0.429784 11.5497 0.715155 11.5497C1.5821 11.5275 2.41395 12.0639 2.7634 12.9135C3.11136 13.762 2.88747 14.7509 2.20673 15.3752C1.99367 15.5708 1.96654 15.8979 2.14636 16.1251C2.60858 16.7142 3.13951 17.2502 3.7208 17.7183C3.94895 17.9019 4.28062 17.8764 4.47849 17.6581C5.07423 16.9995 6.13978 16.7557 6.96006 17.1001C7.81941 17.4597 8.35979 18.3281 8.30701 19.2605C8.2896 19.5534 8.50451 19.8088 8.79525 19.842C9.1758 19.8867 9.5584 19.9086 9.94219 19.9086C10.3065 19.9086 10.6706 19.8887 11.0349 19.8483C11.3235 19.8164 11.5373 19.5675 11.5275 19.2781C11.4942 18.3555 12.0422 17.5024 12.8896 17.1555C13.7089 16.8208 14.7625 17.0657 15.3549 17.716C15.5516 17.9302 15.8768 17.9562 16.1061 17.779C16.7015 17.312 17.2429 16.7764 17.7164 16.1869C17.9001 15.9586 17.874 15.6269 17.657 15.4302C16.964 14.803 16.7394 13.8047 17.0993 12.9471C17.4375 12.14 18.2556 11.5977 19.1356 11.5977L19.2586 11.6009C19.5443 11.6241 19.8069 11.4042 19.8413 11.1127C19.9292 10.3643 19.9302 9.60296 19.8456 8.84916Z" fill="#231F20"/>
</g>
</svg>
