<svg width="21" height="20" viewBox="0 0 21 20" fill="none" xmlns="http://www.w3.org/2000/svg">
<mask id="mask0" style="mask-type:alpha" maskUnits="userSpaceOnUse" x="8" y="0" width="12" height="11">
<path fill-rule="evenodd" clip-rule="evenodd" d="M8.63409 0.000488281H19.6249V10.7896H8.63409V0.000488281Z" fill="white"/>
</mask>
<g mask="url(#mask0)">
<path fill-rule="evenodd" clip-rule="evenodd" d="M18.7951 3.30871L16.2858 0.823327C15.1743 -0.26975 13.3712 -0.275904 12.2597 0.811789L9.47353 3.52794C8.35969 4.61563 8.35276 6.38871 9.46199 7.48256L11.052 5.95256C10.8928 5.4664 11.0905 4.91025 11.4843 4.52256L13.2574 2.79487C13.8158 2.25102 14.7174 2.2541 15.2705 2.80102L16.7781 4.29102C17.332 4.84102 17.3289 5.72179 16.7728 6.26871L14.9997 7.9964C14.6274 8.36256 14.0112 8.5641 13.5335 8.43486L11.9743 9.9641C13.0828 11.061 14.8858 11.0641 16.0005 9.9764L18.7828 7.26256C19.9005 6.17256 19.9066 4.40256 18.7951 3.30871Z" fill="#9E9E9E"/>
</g>
<path fill-rule="evenodd" clip-rule="evenodd" d="M8.60012 13.2487C8.73243 13.7233 8.52166 14.3395 8.13705 14.7149L6.48166 16.3326C5.91628 16.8849 4.99705 16.8818 4.43243 16.3226L2.89397 14.8079C2.33166 14.2526 2.33474 13.3449 2.90243 12.7949L4.55859 11.1787C4.96089 10.7849 5.54089 10.5864 6.04859 10.7518L7.64474 9.17102C6.51474 8.05641 4.67551 8.05025 3.54012 9.15949L0.856278 11.7803C-0.279107 12.891 -0.28526 14.6941 0.844739 15.8118L3.39859 18.3387C4.52859 19.451 6.36705 19.4564 7.5032 18.3479L10.1894 15.7279C11.3224 14.6156 11.3278 12.8164 10.2017 11.6979L8.60012 13.2487Z" fill="#9E9E9E"/>
<path fill-rule="evenodd" clip-rule="evenodd" d="M6.85402 12.5274C7.2294 12.9059 7.84555 12.9121 8.23017 12.5336L12.8186 7.96898C13.2002 7.59052 13.2032 6.97436 12.8217 6.59283C12.4463 6.21436 11.8302 6.21436 11.4517 6.58975L6.86017 11.1544C6.47863 11.5297 6.47863 12.1459 6.85402 12.5274Z" fill="#9E9E9E"/>
</svg>
